<svg viewBox="0 0 140 30" class="icon-vlz-new" xmlns="http://www.w3.org/2000/svg"><g id="vlz-logo-new"><path class="cls-2" d="M22.13,7.29a4,4,0,0,0-1,.17,3.42,3.42,0,0,0-.93.35,2.35,2.35,0,0,0-.83.76,6.82,6.82,0,0,0-.63,1.09c-.68,1.49-1.7,3.8-3.08,7S12.92,23,11.48,26.45H10.2Q8,21,5.93,16T3.15,9.18a2.61,2.61,0,0,0-.49-.76,3.19,3.19,0,0,0-.81-.62,3.27,3.27,0,0,0-.92-.36A5.77,5.77,0,0,0,0,7.29v-1H9v1a14.94,14.94,0,0,0-1.94.21c-.52.1-.79.28-.79.55a1.08,1.08,0,0,0,.07.36c0,.14.07.26.1.34.38.91,1,2.41,1.84,4.48s2.05,5,3.62,8.85c.77-1.73,1.67-3.78,2.68-6.14s1.69-4,2-4.85a10.81,10.81,0,0,0,.58-1.76,4.56,4.56,0,0,0,.08-.81A.63.63,0,0,0,17,8a3.14,3.14,0,0,0-.84-.38,9.4,9.4,0,0,0-1-.21l-1-.11v-1h8.08Z"></path><path class="cls-2" d="M50.66,20.33l-.41,5.86h-18v-1c.3,0,.72-.06,1.22-.13a4.25,4.25,0,0,0,1-.18,1.38,1.38,0,0,0,.68-.55,1.69,1.69,0,0,0,.19-.86V9.18a1.94,1.94,0,0,0-.16-.82,1.29,1.29,0,0,0-.71-.58,5.29,5.29,0,0,0-1.1-.32,10.71,10.71,0,0,0-1.12-.17v-1H49v4.8H47.87a6.35,6.35,0,0,0-1.32-2.26,3.24,3.24,0,0,0-1.94-1.31c-.31,0-.69-.07-1.13-.09s-.94,0-1.5,0H38.57v7.91H41a5.53,5.53,0,0,0,1.72-.2,2.42,2.42,0,0,0,1-.68,3.69,3.69,0,0,0,.57-1.09,6.08,6.08,0,0,0,.31-1.28h1.15v7.79H44.58a5.78,5.78,0,0,0-.33-1.42,3.33,3.33,0,0,0-.55-1.08,2.24,2.24,0,0,0-1.08-.72,6.3,6.3,0,0,0-1.6-.17H38.57v6a6,6,0,0,0,.13,1.42,1.34,1.34,0,0,0,.54.78,2.45,2.45,0,0,0,1.08.35c.47.05,1.11.07,2,.07h1.34A13.54,13.54,0,0,0,45,25a8.83,8.83,0,0,0,1.2-.2,2,2,0,0,0,.89-.4,9,9,0,0,0,1.47-2,12.91,12.91,0,0,0,1-2ZM44.24,2.71l-2.09.93L39,5.06l-.48-.55,2.28-2C41.33,2,41.91,1.44,42.48.88a4.24,4.24,0,0,1,.9-.68,2,2,0,0,1,.86-.2,1.62,1.62,0,0,1,1,.32,1,1,0,0,1,.41.8,1.21,1.21,0,0,1-.39.95A4,4,0,0,1,44.24,2.71Z"></path><path class="cls-2" d="M79.73,20.28l-.46,5.91h-17v-1l1.07-.1a3.87,3.87,0,0,0,1-.19,1.22,1.22,0,0,0,.66-.53,1.71,1.71,0,0,0,.21-.9V9.24A1.86,1.86,0,0,0,65,8.4a1.28,1.28,0,0,0-.7-.59,6.29,6.29,0,0,0-1-.33,6.07,6.07,0,0,0-1.05-.19v-1h9.17v1a8.55,8.55,0,0,0-1.11.14,9.59,9.59,0,0,0-1,.23,1.1,1.1,0,0,0-.71.57,2,2,0,0,0-.19.87V22.46a7.49,7.49,0,0,0,.11,1.44,1.23,1.23,0,0,0,.46.8,2.28,2.28,0,0,0,1,.32,19.12,19.12,0,0,0,2,.08l1.18,0c.4,0,.8-.06,1.16-.11a7.47,7.47,0,0,0,1-.23,1.45,1.45,0,0,0,.68-.38,13,13,0,0,0,1.46-2,13.46,13.46,0,0,0,1.15-2.12Z"></path><path class="cls-2" d="M108.89,20.33l-.41,5.86h-18v-1c.31,0,.72-.06,1.23-.13a4.37,4.37,0,0,0,1-.18,1.34,1.34,0,0,0,.68-.55,1.69,1.69,0,0,0,.19-.86V9.18a1.94,1.94,0,0,0-.16-.82,1.29,1.29,0,0,0-.71-.58,5.41,5.41,0,0,0-1.11-.32,9.87,9.87,0,0,0-1.11-.17v-1h16.82v4.8H106.1a6.06,6.06,0,0,0-1.32-2.26,3.25,3.25,0,0,0-1.93-1.31q-.48-.06-1.14-.09t-1.5,0H96.8v7.91h2.44a5.48,5.48,0,0,0,1.73-.2,2.42,2.42,0,0,0,1-.68,3.47,3.47,0,0,0,.57-1.09,6.08,6.08,0,0,0,.31-1.28H104v7.79h-1.16a5.78,5.78,0,0,0-.33-1.42,3.54,3.54,0,0,0-.55-1.08,2.2,2.2,0,0,0-1.08-.72,6.28,6.28,0,0,0-1.61-.17H96.8v6a6,6,0,0,0,.13,1.42,1.34,1.34,0,0,0,.54.78,2.55,2.55,0,0,0,1.09.35,19.51,19.51,0,0,0,2,.07h1.33a13.75,13.75,0,0,0,1.4-.06,9.38,9.38,0,0,0,1.2-.2,2,2,0,0,0,.88-.4,9,9,0,0,0,1.47-2,12.91,12.91,0,0,0,1-2Z"></path><path class="cls-2" d="M137.62,20l-.73,6.21H119.44V25.7L133.11,7.4h-5q-.89,0-1.47,0a8.28,8.28,0,0,0-1.08.12,4.45,4.45,0,0,0-2.27,1.52,9.76,9.76,0,0,0-1.91,2.85h-1.07L121,6.29h16.28v.49l-13.68,18.3h5.16a22.71,22.71,0,0,0,2.77-.17,3.66,3.66,0,0,0,1.92-.57,11.16,11.16,0,0,0,1.85-2.13A13.09,13.09,0,0,0,136.54,20Z"></path></g></svg>
